<?xml version="1.0" encoding="UTF-8"?>
<svg id="Layer_1" xmlns="http://www.w3.org/2000/svg" version="1.1" viewBox="0 0 260 260">
  <!-- Generator: Adobe Illustrator 29.6.1, SVG Export Plug-In . SVG Version: 2.1.1 Build 9)  -->
  <defs>
    <style>
      .st0 {
        fill: #dbdfd8;
      }
    </style>
  </defs>
  <path class="st0" d="M57.12,108.46l9.8,9.25c-.52,3.51.08,7.02.06,10.54,0,1.96-.64,3.98-.02,5.9h-10.3l.29,2.29c32.15.19,64.37.2,96.55.14,8.22-.01,19.01.82,26.92-.05.46-.05.91-.24,1.36-.3l.03-2.09h-10.3v-65.46h7.58L119.11,15.78l-33.8,29.58-.17-10.74.95-.33-.02-6.81h-13.8s-1.05.46-1.05.46v6.52h1.21v21.97l-13.64,12.27h7.73l.45,44.55-9.81-8.77-24.72,24.94,2.1,1.58,22.57-22.54ZM168.79,134.16h-98.94l-.42-.5-.03-2.22h99.39v2.73ZM133.32,108.54c0-1.6.43-3.13.31-4.83-1.09-16.12-21.16-20.59-27.53-5.72-.25.59-1.26,3.19-1.26,3.59v27.43h-3.33c.15-.37.26-.62.28-1.04.38-9.21-2.15-27.57,1.3-35.42,5.15-11.69,20.53-14.26,29.18-4.77,1.67,1.83,4.39,6.81,4.39,9.25v31.97h-3.33c.03-6.82-.03-13.65-.01-20.47ZM131.21,105.67v10.61h-4.24v1.82h4.24v10.91h-24.24v-26.82c0-1.72,1.75-4.6,2.43-6.21.7-.5,3.73,3.21,4.38,3.65.65.44,1.36-.17,1.37-.47,0-.32-4.32-3.88-4.21-4.5,1.76-2.15,4.52-3.25,7.25-3.53v4.39l1.51.46c.09-.78-.26-4.71.47-4.81,6.51.53,11.5,6.5,11.04,12.99h-4.24v1.52h4.24ZM168.79,129.01h-30c.63-.83.03-1.56.06-2.27.28-8.16.64-17.59.26-25.77-.65-13.75-11.37-24.7-25.63-20.46-6.05,1.8-14.08,10-14.08,16.53v31.97h-29.7l.15-60.31h98.94v60.31ZM73.94,30.21h9.7v1.82h-9.7v-1.82ZM82.43,35.21v12.43l-7.27,6.52v-19.7c.22-.08.36.3.45.3h7.12c.15.11-.3.39-.3.45ZM66.37,65.97l52.58-46.36,52.27,46.36h-104.85Z"/>
  <path class="st0" d="M30,177.2v1.52s23.94,0,23.94,0l.91-7.88h-1.81c-1.16,7.08-8.89,5.89-14.25,5.15v-11.82h5.91c.1,0,1.7.45,1.89.53,1.23.56,1.41,1.88,1.29,3.11h1.82v-9.4h-1.82c.39,1.7-.85,3.33-2.57,3.33h-6.52v-11.21h8.33c.1,0,1.75.66,1.95.78,1.41.85,2.21,2.46,2.49,4.03l1.48.04v-7.27h-23.03s0,1.52,0,1.52c1.89-.18,3.03.34,3.31,2.3.95,6.74-.66,15.46.04,22.41.04,1.82-1.57,3.12-3.35,2.87Z"/>
  <path class="st0" d="M196.67,175.53v-11.37h6.52c1.95,0,3.02,1.81,2.89,3.62h1.8s0-9.38,0-9.38h-1.82c.26,1.41-.74,3.33-2.27,3.33h-7.12v-10.76l.45-.45h8.18c.82,0,2.83,1.37,3.35,2.11,1,1.45.25,3.16,2.56,2.74v-7.27h-23.33c-.29,1.94.93,1.26,2.04,1.74,1.97.85,1.34,4.16,1.4,5.73.25,5.94.48,12.22.17,18.08-.12,2.31-1.09,3.9-3.62,3.53v1.52h23.94l1.21-7.88-1.77.05c-1.56,6.36-9.62,6.87-14.59,4.65Z"/>
  <path class="st0" d="M128.82,190.51c2.87.2,3.31,1.57,3.57,4.16.37,3.81.32,10.35.05,14.22-.28,4.14-1.3,7.68-5.76,8.79-5.04,1.26-10.27-.37-10.88-6.11-.46-4.24-.5-14.53,0-18.72.25-2.11,1.77-2.03,3.56-2.34l.21-1.48-12.59-.29v1.81c1.51-.03,3.06.68,3.31,2.3,1.59,10.06-4.86,27.25,11.37,28.03,18.54.9,11.91-16.57,13.58-27.67.39-2.58,1.26-2.43,3.57-2.79l.29-1.38h-10.3l.03,1.49Z"/>
  <path class="st0" d="M140.61,177.2v1.82s12.73,0,12.73,0v-1.82c-2.23.22-2.96-.46-3.9-2.31l-10.06-26.31c-.68-.94-3.33-.34-4.48-.44l-10.81,27.52c-.81.96-1.44,1.8-2.86,1.53v1.82h9.39l-.02-1.8-2.34-.38c-1.26-.9.92-6.37,1.44-7.68l11.87.04c.72,2.92,4.76,8.2-.94,8.01ZM130.91,166.29l4.84-12.12,4.55,12.12h-9.39Z"/>
  <path class="st0" d="M102.27,217.82c-1.42-.89-3.85-7.42-4.62-9.32-2.55-6.32-4.7-12.83-7.19-19.18l-3.91-.32-9.83,25.38c-.92,1.82-1.57,3.89-3.96,4.07l-.04,1.79h9.39v-2.12c-1.06.17-2.89,0-3.03-1.37-.06-.58,1.82-6.48,2.11-6.67l11.34-.16c.8,2.72,5.3,8.99-.73,8.2v2.12h12.73l-.03-1.79c-.75-.17-1.57-.2-2.25-.63ZM82.43,207.51l4.39-12.13,4.7,12.13h-9.09Z"/>
  <path class="st0" d="M67.6,175.51c-1.94-1.39-2.74-3.65-3.39-5.85-.5,0-1.93-.42-1.79.42l.62,8.94,1.54-.13c.55-.39-.1-1.6.73-1.38,1,.27,2.51,1.35,3.78,1.67,7.8,1.97,16.48-1.37,15.47-10.62-.86-7.88-14.03-6.99-16.12-12.06-3.7-8.94,12.62-9.21,13.12-.85l1.49.03v-7.27l-1.8.03c.3,1.8-1.78.04-2.67-.26-14.33-4.85-21.55,10.52-9.37,16.04,3.87,1.76,10.78,2.32,10.64,7.98-.15,6.04-8.42,6.05-12.24,3.31Z"/>
  <path class="st0" d="M74.25,190.84v-1.82h-10v1.82c4.33-.11,3.95,1.18,2.87,4.53-1.98,6.16-5.14,12.35-7.26,18.5l-8.58-21.15c-.31-1.91,2.18-1.96,3.58-1.89v-2.12h-13.64v1.82c2.23-.18,3.27,1.12,4.2,2.92l11.13,26.8,3.41-.06c3.72-8.5,6.54-17.92,10.59-26.23.83-1.7,1.33-3.59,3.69-3.13Z"/>
  <path class="st0" d="M175.3,150.53c.6,0,1.97,1.02,2.43,1.51,1.33,1.41,1.22,3.89,3.18,3.64v-7.58h-27.27c-.05,1.46.06,2.94.01,4.41-.03.81-.84,2.79.18,3.13,1.85.63,1.51-1.11,2.01-2.16.5-1.05,2.22-2.96,3.41-2.96h5.3v24.4c0,.18-.69,1.62-.92,1.81-.71.55-2.14.47-3.02.47v1.82h13.64v-1.82c-1.14.31-4.24-.19-4.24-1.67v-25h5.3Z"/>
  <path class="st0" d="M112.58,150.53c.51,0,2.44.92,2.89,1.35,1.21,1.14,1.23,4.31,2.83,3.78,1.03-.34.2-2.63.17-3.45-.05-1.36.06-2.74.01-4.1h-27.27c.25,1.22-1.05,7.14.18,7.55,1.5.5,1.4-1.4,1.89-2.3.65-1.22,2.4-2.83,3.84-2.83h5v24.4c0,.18-.89,1.85-1.12,1.99-.78.47-1.95.24-2.82.29v1.82h13.33v-1.82c-1.69.29-3.94-.22-3.94-2.27v-24.4h5Z"/>
  <path class="st0" d="M169.7,196.6c2.16.44,1.78-1.39,2.78-2.83,1.93-2.77,5.5-2.08,8.43-2.02v24.7c0,1.87-2.81,2.24-4.24,1.97v1.82h13.03v-1.82c-1.82.48-3.64-1.11-3.64-2.88v-23.64c.49-.42,2.1-.37,2.83-.33,3.82.18,5.87.85,6.6,5l1.49.03v-7.58h-26.97l-.3,7.58Z"/>
  <polygon class="st0" points="216.67 28.7 220.9 32.78 196.66 56.74 189.99 50.94 177.27 63.69 178.78 65.23 179.4 65.23 189.89 54.78 196.78 60.8 222.88 34.76 227.27 38.69 230 25.36 216.67 28.7"/>
  <path class="st0" d="M145.45,218.42v1.82h23.03l1.21-8.18-1.78.03c-1.18,5.22-7.04,6.34-11.68,5.4-1.74-.36-1.87-1.57-2-3.15-.57-6.77.42-14.34.04-21.2.29-2.04,1.66-2.69,3.61-2.61v-1.51h-12.43c-.32,3.18,2.31.36,3.24,3.57.84,2.89.78,19.42.36,22.91-.27,2.2-1.35,3.14-3.6,2.91Z"/>
  <path class="st0" d="M79.55,232.36c-1.81-.3-4.31.22-6.21,0v11.52l2.08-.04.04-3.9c.94,0,1.66-.21,2.45.43.63.5,2.27,3.32,2.47,3.44.54.32,1.97.07,2.65.38l-2.73-4.38c3.55-1.62,3.16-6.79-.76-7.44ZM75.45,238.12v-3.64c1.61-.06,5.35-.7,5.08,1.93-.22,2.12-3.58,1.73-5.08,1.71Z"/>
  <path class="st0" d="M94.24,239.03h5.45v-1.82h-5.45v-2.72c2.02-.18,4.07-.65,6.06,0v-2.12s-8.48,0-8.48,0v11.52c2.86.42,5.89.28,8.75-.03l.03-1.78h-6.36v-3.03Z"/>
  <path class="st0" d="M113.63,232.51l-4.84,11.37,1.99.04,1.22-2.78h5.08s1.17,2.67,1.17,2.67l2.34.07-4.57-11.04c-.49-.74-1.65-.58-2.4-.33ZM113.03,239.33l1.52-4.24,1.81,4.24h-3.33Z"/>
  <path class="st0" d="M167.34,232.43c-.57.33-2.54,4.66-2.95,4.78-.56.18-.41-.22-.52-.4-.45-.68-2.39-4.2-2.72-4.39-.18-.1-2.63-.39-2.36.38.82,1.73,3.66,4.87,4.1,6.51.39,1.5-.11,3.08.27,4.57,3.71,1.32,1.68-2.56,2.38-4.62.31-.93,4.46-6.65,4.15-6.91-.63.11-1.88-.21-2.36.07Z"/>
  <polygon class="st0" points="142.43 232.36 142.71 234.35 146.06 234.48 146.06 243.88 148.49 243.88 148.49 234.18 152.12 234.48 152.12 232.36 142.43 232.36"/>
  <path class="st0" d="M131.21,242.06v-9.7h-2.43s.15,11.55.15,11.55c1.91.68,3.89.07,5.77-.05,1.79-.12,2.85,1.25,2.57-1.8h-6.06Z"/>
  <path class="st0" d="M92.12,79.61h-14.24v19.09h14.24v-19.09ZM83.64,96.58h-3.33v-6.36h3.33v6.36ZM83.64,88.1l-3.33-.3-.3-5.76h3.64s0,6.06,0,6.06ZM89.7,96.58h-3.64v-6.36h3.64v6.36ZM89.7,88.1h-3.64v-5.91l.46-.35,3.18-.1v6.36Z"/>
  <path class="st0" d="M160.3,79.61h-13.94v19.09h13.94v-19.09ZM148.49,82.19l.45-.37,2.69-.06.45.48-.09,5.58-3.5.29v-5.91ZM152.12,96.58h-3.64v-6.36h3.64v6.36ZM158.18,96.58h-3.64v-6.36h3.64v6.36ZM158.18,88.1c-1.13-.55-2.42-.23-3.64-.3v-6.06h3.64v6.36Z"/>
  <rect class="st0" x="79.09" y="110.83" width="11.52" height="1.82"/>
  <path class="st0" d="M111.21,38.69c-.08.22.3.36.3.45v18.34h15.45v-18.79h-15.76ZM117.88,55.06h-4.55c.27-1.9.57-3.88,0-5.76h4.55v5.76ZM117.88,46.88h-4.55c.84-1.98-.35-3.82.13-5.78l4.41-.28v6.06ZM124.85,55.06h-4.85v-5.76h4.39c.09,0,.23-.38.45-.3v6.06ZM124.85,46.88h-4.85c.35-1.91-.5-4.46.45-6.06h4.39v6.06Z"/>
  <path class="st0" d="M126.37,96.72c-.3.14-2.85,2.72-3.54,3.3-.21.18-.32.74-.58.8-5.8-4.11-11.2,5.37-4.98,8.03,2.22.95,4.31-.38,5.14-.01.84.37,3.63,4.2,4.37,4.08.33-.05.92-.68.66-1.19-.45-.89-3.93-3.43-4.06-4.14-.07-.35.89-1.93.89-2.99,0-1.01-.45-1.85-.85-2.73l4.45-4.54c-.47-.54-.75-.96-1.5-.62ZM120.39,107.12c-4.68,1.07-4.83-4.89-1.37-5.34,3.33-.42,4.35,4.66,1.37,5.34Z"/>
  <path class="st0" d="M111.01,111.22c-.61.74-.51,1.99.61,1.68.37-.1,3.57-3.38,3.51-3.7l-1-.77c-.7.96-2.49,2.02-3.13,2.79Z"/>
</svg>